solid Cone001
  facet normal 0.000000e+000 5.227486e-008 -1.000000e+000
    outer loop
      vertex -1.927443e+001 7.973813e-007 -1.824196e+001
      vertex 1.721248e+001 7.973813e-007 -1.824196e+001
      vertex 1.721248e+001 -3.648692e+001 -1.824196e+001
    endloop
  endfacet
  facet normal 0.000000e+000 5.227486e-008 -1.000000e+000
    outer loop
      vertex 1.721248e+001 -3.648692e+001 -1.824196e+001
      vertex -1.927443e+001 -3.648692e+001 -1.824196e+001
      vertex -1.927443e+001 7.973813e-007 -1.824196e+001
    endloop
  endfacet
  facet normal 1.000000e+000 0.000000e+000 0.000000e+000
    outer loop
      vertex 1.721248e+001 7.973813e-007 -1.824196e+001
      vertex 1.721248e+001 -7.975124e-007 1.824496e+001
      vertex 1.721248e+001 -3.648692e+001 1.824496e+001
    endloop
  endfacet
  facet normal 1.000000e+000 0.000000e+000 -0.000000e+000
    outer loop
      vertex 1.721248e+001 -3.648692e+001 1.824496e+001
      vertex 1.721248e+001 -3.648692e+001 -1.824196e+001
      vertex 1.721248e+001 7.973813e-007 -1.824196e+001
    endloop
  endfacet
  facet normal 0.000000e+000 -5.227486e-008 1.000000e+000
    outer loop
      vertex 1.721248e+001 -7.975124e-007 1.824496e+001
      vertex -1.927443e+001 -7.975124e-007 1.824496e+001
      vertex -1.927443e+001 -3.648692e+001 1.824496e+001
    endloop
  endfacet
  facet normal 0.000000e+000 -5.227486e-008 1.000000e+000
    outer loop
      vertex -1.927443e+001 -3.648692e+001 1.824496e+001
      vertex 1.721248e+001 -3.648692e+001 1.824496e+001
      vertex 1.721248e+001 -7.975124e-007 1.824496e+001
    endloop
  endfacet
  facet normal -1.000000e+000 0.000000e+000 0.000000e+000
    outer loop
      vertex -1.927443e+001 -7.975124e-007 1.824496e+001
      vertex -1.927443e+001 7.973813e-007 -1.824196e+001
      vertex -1.927443e+001 -3.648692e+001 -1.824196e+001
    endloop
  endfacet
  facet normal -1.000000e+000 0.000000e+000 -0.000000e+000
    outer loop
      vertex -1.927443e+001 -3.648692e+001 -1.824196e+001
      vertex -1.927443e+001 -3.648692e+001 1.824496e+001
      vertex -1.927443e+001 -7.975124e-007 1.824496e+001
    endloop
  endfacet
  facet normal 0.000000e+000 1.000000e+000 4.371139e-008
    outer loop
      vertex 1.220481e+001 3.460535e-007 -7.916780e+000
      vertex 1.376273e+001 1.816488e-007 -4.155640e+000
      vertex 1.721248e+001 7.973813e-007 -1.824196e+001
    endloop
  endfacet
  facet normal 5.444466e-015 1.000000e+000 4.371139e-008
    outer loop
      vertex 9.726524e+000 4.872309e-007 -1.114654e+001
      vertex 1.220481e+001 3.460535e-007 -7.916780e+000
      vertex 1.721248e+001 7.973813e-007 -1.824196e+001
    endloop
  endfacet
  facet normal 2.741499e-015 1.000000e+000 4.371139e-008
    outer loop
      vertex 6.496758e+000 5.955602e-007 -1.362483e+001
      vertex 9.726524e+000 4.872309e-007 -1.114654e+001
      vertex 1.721248e+001 7.973813e-007 -1.824196e+001
    endloop
  endfacet
  facet normal 2.920622e-015 1.000000e+000 4.371139e-008
    outer loop
      vertex 2.735616e+000 6.636587e-007 -1.518274e+001
      vertex 6.496758e+000 5.955602e-007 -1.362483e+001
      vertex 1.721248e+001 7.973813e-007 -1.824196e+001
    endloop
  endfacet
  facet normal -2.304626e-015 1.000000e+000 4.371137e-008
    outer loop
      vertex -1.300586e+000 6.868858e-007 -1.571412e+001
      vertex 2.735616e+000 6.636587e-007 -1.518274e+001
      vertex 1.721248e+001 7.973813e-007 -1.824196e+001
    endloop
  endfacet
  facet normal 9.721428e-014 1.000000e+000 4.371205e-008
    outer loop
      vertex -5.336787e+000 6.636586e-007 -1.518274e+001
      vertex -1.300586e+000 6.868858e-007 -1.571412e+001
      vertex 1.721248e+001 7.973813e-007 -1.824196e+001
    endloop
  endfacet
  facet normal 0.000000e+000 1.000000e+000 4.371138e-008
    outer loop
      vertex -5.336787e+000 6.636586e-007 -1.518274e+001
      vertex 1.721248e+001 7.973813e-007 -1.824196e+001
      vertex -1.927443e+001 7.973813e-007 -1.824196e+001
    endloop
  endfacet
  facet normal -1.711128e-015 1.000000e+000 4.371138e-008
    outer loop
      vertex -9.097927e+000 5.955599e-007 -1.362482e+001
      vertex -5.336787e+000 6.636586e-007 -1.518274e+001
      vertex -1.927443e+001 7.973813e-007 -1.824196e+001
    endloop
  endfacet
  facet normal -1.416389e-015 1.000000e+000 4.371138e-008
    outer loop
      vertex -1.232769e+001 4.872304e-007 -1.114653e+001
      vertex -9.097927e+000 5.955599e-007 -1.362482e+001
      vertex -1.927443e+001 7.973813e-007 -1.824196e+001
    endloop
  endfacet
  facet normal -8.522076e-015 1.000000e+000 4.371139e-008
    outer loop
      vertex -1.480598e+001 3.460528e-007 -7.916765e+000
      vertex -1.232769e+001 4.872304e-007 -1.114653e+001
      vertex -1.927443e+001 7.973813e-007 -1.824196e+001
    endloop
  endfacet
  facet normal -6.912682e-015 1.000000e+000 4.371138e-008
    outer loop
      vertex -1.636389e+001 1.816480e-007 -4.155623e+000
      vertex -1.480598e+001 3.460528e-007 -7.916765e+000
      vertex -1.927443e+001 7.973813e-007 -1.824196e+001
    endloop
  endfacet
  facet normal 1.182910e-014 1.000000e+000 4.371139e-008
    outer loop
      vertex -1.689496e+001 5.321936e-009 -1.217517e-001
      vertex -1.636389e+001 1.816480e-007 -4.155623e+000
      vertex -1.927443e+001 7.973813e-007 -1.824196e+001
    endloop
  endfacet
  facet normal 2.095138e-014 1.000000e+000 4.371139e-008
    outer loop
      vertex -1.689496e+001 5.321936e-009 -1.217517e-001
      vertex -1.927443e+001 7.973813e-007 -1.824196e+001
      vertex -1.927443e+001 -7.975124e-007 1.824496e+001
    endloop
  endfacet
  facet normal 0.000000e+000 1.000000e+000 4.371139e-008
    outer loop
      vertex -1.636389e+001 -1.712079e-007 3.916780e+000
      vertex -1.689496e+001 5.321936e-009 -1.217517e-001
      vertex -1.927443e+001 -7.975124e-007 1.824496e+001
    endloop
  endfacet
  facet normal 0.000000e+000 1.000000e+000 4.371139e-008
    outer loop
      vertex 1.721248e+001 -7.975124e-007 1.824496e+001
      vertex 1.721248e+001 7.973813e-007 -1.824196e+001
      vertex 1.376273e+001 1.816488e-007 -4.155640e+000
    endloop
  endfacet
  facet normal -9.001717e-013 1.000000e+000 4.371144e-008
    outer loop
      vertex 1.721248e+001 -7.975124e-007 1.824496e+001
      vertex 1.376273e+001 1.816488e-007 -4.155640e+000
      vertex 1.429411e+001 5.220328e-009 -1.194272e-001
    endloop
  endfacet
  facet normal -4.222837e-014 1.000000e+000 4.371140e-008
    outer loop
      vertex 1.721248e+001 -7.975124e-007 1.824496e+001
      vertex 1.429411e+001 5.220328e-009 -1.194272e-001
      vertex 1.376273e+001 -1.712077e-007 3.916775e+000
    endloop
  endfacet
  facet normal 2.576683e-014 1.000000e+000 4.371137e-008
    outer loop
      vertex 1.721248e+001 -7.975124e-007 1.824496e+001
      vertex 1.376273e+001 -1.712077e-007 3.916775e+000
      vertex 1.220482e+001 -3.356124e-007 7.677917e+000
    endloop
  endfacet
  facet normal 0.000000e+000 1.000000e+000 4.371138e-008
    outer loop
      vertex 1.721248e+001 -7.975124e-007 1.824496e+001
      vertex 1.220482e+001 -3.356124e-007 7.677917e+000
      vertex 9.726531e+000 -4.767899e-007 1.090768e+001
    endloop
  endfacet
  facet normal -2.690811e-015 1.000000e+000 4.371139e-008
    outer loop
      vertex 1.721248e+001 -7.975124e-007 1.824496e+001
      vertex 9.726531e+000 -4.767899e-007 1.090768e+001
      vertex 6.496764e+000 -5.851193e-007 1.338597e+001
    endloop
  endfacet
  facet normal 1.625513e-015 1.000000e+000 4.371138e-008
    outer loop
      vertex 1.721248e+001 -7.975124e-007 1.824496e+001
      vertex 6.496764e+000 -5.851193e-007 1.338597e+001
      vertex 2.735624e+000 -6.532180e-007 1.494389e+001
    endloop
  endfacet
  facet normal 0.000000e+000 1.000000e+000 4.371139e-008
    outer loop
      vertex -1.927443e+001 -7.975124e-007 1.824496e+001
      vertex 1.721248e+001 -7.975124e-007 1.824496e+001
      vertex 2.735624e+000 -6.532180e-007 1.494389e+001
    endloop
  endfacet
  facet normal -1.745619e-014 1.000000e+000 4.371127e-008
    outer loop
      vertex -1.927443e+001 -7.975124e-007 1.824496e+001
      vertex 2.735624e+000 -6.532180e-007 1.494389e+001
      vertex -1.300578e+000 -6.764452e-007 1.547526e+001
    endloop
  endfacet
  facet normal 1.371048e-015 1.000000e+000 4.371140e-008
    outer loop
      vertex -1.927443e+001 -7.975124e-007 1.824496e+001
      vertex -1.300578e+000 -6.764452e-007 1.547526e+001
      vertex -5.336780e+000 -6.532180e-007 1.494389e+001
    endloop
  endfacet
  facet normal -3.331046e-015 1.000000e+000 4.371137e-008
    outer loop
      vertex -1.927443e+001 -7.975124e-007 1.824496e+001
      vertex -5.336780e+000 -6.532180e-007 1.494389e+001
      vertex -9.097920e+000 -5.851194e-007 1.338597e+001
    endloop
  endfacet
  facet normal 5.557399e-015 1.000000e+000 4.371139e-008
    outer loop
      vertex -1.927443e+001 -7.975124e-007 1.824496e+001
      vertex -9.097920e+000 -5.851194e-007 1.338597e+001
      vertex -1.232769e+001 -4.767901e-007 1.090769e+001
    endloop
  endfacet
  facet normal 0.000000e+000 1.000000e+000 4.371138e-008
    outer loop
      vertex -1.927443e+001 -7.975124e-007 1.824496e+001
      vertex -1.232769e+001 -4.767901e-007 1.090769e+001
      vertex -1.480597e+001 -3.356126e-007 7.677921e+000
    endloop
  endfacet
  facet normal 0.000000e+000 1.000000e+000 4.371138e-008
    outer loop
      vertex -1.636389e+001 -1.712079e-007 3.916780e+000
      vertex -1.927443e+001 -7.975124e-007 1.824496e+001
      vertex -1.480597e+001 -3.356126e-007 7.677921e+000
    endloop
  endfacet
  facet normal 0.000000e+000 -1.000000e+000 0.000000e+000
    outer loop
      vertex 1.233593e+000 -3.648692e+001 -1.194289e-001
      vertex 1.147243e+000 -3.648692e+001 -7.753226e-001
      vertex 1.721248e+001 -3.648692e+001 -1.824196e+001
    endloop
  endfacet
  facet normal -0.000000e+000 -1.000000e+000 0.000000e+000
    outer loop
      vertex 1.233593e+000 -3.648692e+001 -1.194289e-001
      vertex 1.721248e+001 -3.648692e+001 -1.824196e+001
      vertex 1.721248e+001 -3.648692e+001 1.824496e+001
    endloop
  endfacet
  facet normal -0.000000e+000 -1.000000e+000 0.000000e+000
    outer loop
      vertex 1.147243e+000 -3.648692e+001 5.364631e-001
      vertex 1.233593e+000 -3.648692e+001 -1.194289e-001
      vertex 1.721248e+001 -3.648692e+001 1.824496e+001
    endloop
  endfacet
  facet normal -0.000000e+000 -1.000000e+000 0.000000e+000
    outer loop
      vertex 8.940792e-001 -3.648692e+001 1.147658e+000
      vertex 1.147243e+000 -3.648692e+001 5.364631e-001
      vertex 1.721248e+001 -3.648692e+001 1.824496e+001
    endloop
  endfacet
  facet normal -0.000000e+000 -1.000000e+000 0.000000e+000
    outer loop
      vertex 4.913507e-001 -3.648692e+001 1.672501e+000
      vertex 8.940792e-001 -3.648692e+001 1.147658e+000
      vertex 1.721248e+001 -3.648692e+001 1.824496e+001
    endloop
  endfacet
  facet normal 0.000000e+000 -1.000000e+000 -0.000000e+000
    outer loop
      vertex 4.913507e-001 -3.648692e+001 1.672501e+000
      vertex 1.721248e+001 -3.648692e+001 1.824496e+001
      vertex -1.927443e+001 -3.648692e+001 1.824496e+001
    endloop
  endfacet
  facet normal -0.000000e+000 -1.000000e+000 -0.000000e+000
    outer loop
      vertex -3.349352e-002 -3.648692e+001 2.075228e+000
      vertex 4.913507e-001 -3.648692e+001 1.672501e+000
      vertex -1.927443e+001 -3.648692e+001 1.824496e+001
    endloop
  endfacet
  facet normal -0.000000e+000 -1.000000e+000 -0.000000e+000
    outer loop
      vertex -6.446866e-001 -3.648692e+001 2.328394e+000
      vertex -3.349352e-002 -3.648692e+001 2.075228e+000
      vertex -1.927443e+001 -3.648692e+001 1.824496e+001
    endloop
  endfacet
  facet normal -0.000000e+000 -1.000000e+000 -0.000000e+000
    outer loop
      vertex -1.300579e+000 -3.648692e+001 2.414744e+000
      vertex -6.446866e-001 -3.648692e+001 2.328394e+000
      vertex -1.927443e+001 -3.648692e+001 1.824496e+001
    endloop
  endfacet
  facet normal 0.000000e+000 -1.000000e+000 -0.000000e+000
    outer loop
      vertex -1.956471e+000 -3.648692e+001 2.328394e+000
      vertex -1.300579e+000 -3.648692e+001 2.414744e+000
      vertex -1.927443e+001 -3.648692e+001 1.824496e+001
    endloop
  endfacet
  facet normal 0.000000e+000 -1.000000e+000 -0.000000e+000
    outer loop
      vertex -2.567665e+000 -3.648692e+001 2.075229e+000
      vertex -1.956471e+000 -3.648692e+001 2.328394e+000
      vertex -1.927443e+001 -3.648692e+001 1.824496e+001
    endloop
  endfacet
  facet normal 0.000000e+000 -1.000000e+000 -0.000000e+000
    outer loop
      vertex -3.092509e+000 -3.648692e+001 1.672502e+000
      vertex -2.567665e+000 -3.648692e+001 2.075229e+000
      vertex -1.927443e+001 -3.648692e+001 1.824496e+001
    endloop
  endfacet
  facet normal 0.000000e+000 -1.000000e+000 0.000000e+000
    outer loop
      vertex -3.092509e+000 -3.648692e+001 1.672502e+000
      vertex -1.927443e+001 -3.648692e+001 1.824496e+001
      vertex -1.927443e+001 -3.648692e+001 -1.824196e+001
    endloop
  endfacet
  facet normal 0.000000e+000 -1.000000e+000 0.000000e+000
    outer loop
      vertex 1.721248e+001 -3.648692e+001 -1.824196e+001
      vertex 1.147243e+000 -3.648692e+001 -7.753226e-001
      vertex 8.940773e-001 -3.648692e+001 -1.386516e+000
    endloop
  endfacet
  facet normal 0.000000e+000 -1.000000e+000 0.000000e+000
    outer loop
      vertex 1.721248e+001 -3.648692e+001 -1.824196e+001
      vertex 8.940773e-001 -3.648692e+001 -1.386516e+000
      vertex 4.913504e-001 -3.648692e+001 -1.911360e+000
    endloop
  endfacet
  facet normal 0.000000e+000 -1.000000e+000 0.000000e+000
    outer loop
      vertex 1.721248e+001 -3.648692e+001 -1.824196e+001
      vertex 4.913504e-001 -3.648692e+001 -1.911360e+000
      vertex -3.349411e-002 -3.648692e+001 -2.314088e+000
    endloop
  endfacet
  facet normal 0.000000e+000 -1.000000e+000 0.000000e+000
    outer loop
      vertex 1.721248e+001 -3.648692e+001 -1.824196e+001
      vertex -3.349411e-002 -3.648692e+001 -2.314088e+000
      vertex -6.446884e-001 -3.648692e+001 -2.567252e+000
    endloop
  endfacet
  facet normal 0.000000e+000 -1.000000e+000 0.000000e+000
    outer loop
      vertex 1.721248e+001 -3.648692e+001 -1.824196e+001
      vertex -6.446884e-001 -3.648692e+001 -2.567252e+000
      vertex -1.300580e+000 -3.648692e+001 -2.653601e+000
    endloop
  endfacet
  facet normal -0.000000e+000 -1.000000e+000 0.000000e+000
    outer loop
      vertex -1.927443e+001 -3.648692e+001 -1.824196e+001
      vertex 1.721248e+001 -3.648692e+001 -1.824196e+001
      vertex -1.300580e+000 -3.648692e+001 -2.653601e+000
    endloop
  endfacet
  facet normal 0.000000e+000 -1.000000e+000 0.000000e+000
    outer loop
      vertex -1.927443e+001 -3.648692e+001 -1.824196e+001
      vertex -1.300580e+000 -3.648692e+001 -2.653601e+000
      vertex -1.956472e+000 -3.648692e+001 -2.567251e+000
    endloop
  endfacet
  facet normal 0.000000e+000 -1.000000e+000 0.000000e+000
    outer loop
      vertex -1.927443e+001 -3.648692e+001 -1.824196e+001
      vertex -1.956472e+000 -3.648692e+001 -2.567251e+000
      vertex -2.567666e+000 -3.648692e+001 -2.314087e+000
    endloop
  endfacet
  facet normal 0.000000e+000 -1.000000e+000 0.000000e+000
    outer loop
      vertex -1.927443e+001 -3.648692e+001 -1.824196e+001
      vertex -2.567666e+000 -3.648692e+001 -2.314087e+000
      vertex -3.092510e+000 -3.648692e+001 -1.911358e+000
    endloop
  endfacet
  facet normal 0.000000e+000 -1.000000e+000 0.000000e+000
    outer loop
      vertex -1.927443e+001 -3.648692e+001 -1.824196e+001
      vertex -3.092510e+000 -3.648692e+001 -1.911358e+000
      vertex -3.495237e+000 -3.648692e+001 -1.386514e+000
    endloop
  endfacet
  facet normal 0.000000e+000 -1.000000e+000 0.000000e+000
    outer loop
      vertex -1.927443e+001 -3.648692e+001 -1.824196e+001
      vertex -3.495237e+000 -3.648692e+001 -1.386514e+000
      vertex -3.748403e+000 -3.648692e+001 -7.753197e-001
    endloop
  endfacet
  facet normal 0.000000e+000 -1.000000e+000 0.000000e+000
    outer loop
      vertex -1.927443e+001 -3.648692e+001 -1.824196e+001
      vertex -3.748403e+000 -3.648692e+001 -7.753197e-001
      vertex -3.834751e+000 -3.648692e+001 -1.194279e-001
    endloop
  endfacet
  facet normal 0.000000e+000 -1.000000e+000 0.000000e+000
    outer loop
      vertex -1.927443e+001 -3.648692e+001 -1.824196e+001
      vertex -3.834751e+000 -3.648692e+001 -1.194279e-001
      vertex -3.748402e+000 -3.648692e+001 5.364643e-001
    endloop
  endfacet
  facet normal 0.000000e+000 -1.000000e+000 0.000000e+000
    outer loop
      vertex -1.927443e+001 -3.648692e+001 -1.824196e+001
      vertex -3.748402e+000 -3.648692e+001 5.364643e-001
      vertex -3.495237e+000 -3.648692e+001 1.147659e+000
    endloop
  endfacet
  facet normal 0.000000e+000 -1.000000e+000 0.000000e+000
    outer loop
      vertex -3.092509e+000 -3.648692e+001 1.672502e+000
      vertex -1.927443e+001 -3.648692e+001 -1.824196e+001
      vertex -3.495237e+000 -3.648692e+001 1.147659e+000
    endloop
  endfacet
  facet normal -9.343506e-001 3.344513e-001 -1.230097e-001
    outer loop
      vertex 1.429411e+001 5.220328e-009 -1.194272e-001
      vertex 1.117517e+001 -8.713317e+000 -1.194276e-001
      vertex 1.075007e+001 -8.713317e+000 3.109534e+000
    endloop
  endfacet
  facet normal -9.343505e-001 3.344515e-001 -1.230095e-001
    outer loop
      vertex 1.075007e+001 -8.713317e+000 3.109534e+000
      vertex 1.376273e+001 -1.712077e-007 3.916775e+000
      vertex 1.429411e+001 5.220328e-009 -1.194272e-001
    endloop
  endfacet
  facet normal -8.706761e-001 3.344515e-001 -3.606457e-001
    outer loop
      vertex 1.376273e+001 -1.712077e-007 3.916775e+000
      vertex 1.075007e+001 -8.713317e+000 3.109534e+000
      vertex 9.503738e+000 -8.713317e+000 6.118448e+000
    endloop
  endfacet
  facet normal -8.706760e-001 3.344514e-001 -3.606460e-001
    outer loop
      vertex 9.503738e+000 -8.713317e+000 6.118448e+000
      vertex 1.220482e+001 -3.356124e-007 7.677917e+000
      vertex 1.376273e+001 -1.712077e-007 3.916775e+000
    endloop
  endfacet
  facet normal -7.476666e-001 3.344513e-001 -5.737046e-001
    outer loop
      vertex 1.220482e+001 -3.356124e-007 7.677917e+000
      vertex 9.503738e+000 -8.713317e+000 6.118448e+000
      vertex 7.521109e+000 -8.713317e+000 8.702262e+000
    endloop
  endfacet
  facet normal -7.476665e-001 3.344513e-001 -5.737047e-001
    outer loop
      vertex 7.521109e+000 -8.713317e+000 8.702262e+000
      vertex 9.726531e+000 -4.767899e-007 1.090768e+001
      vertex 1.220482e+001 -3.356124e-007 7.677917e+000
    endloop
  endfacet
  facet normal -5.737047e-001 3.344513e-001 -7.476665e-001
    outer loop
      vertex 9.726531e+000 -4.767899e-007 1.090768e+001
      vertex 7.521109e+000 -8.713317e+000 8.702262e+000
      vertex 4.937296e+000 -8.713317e+000 1.068489e+001
    endloop
  endfacet
  facet normal -5.737048e-001 3.344514e-001 -7.476664e-001
    outer loop
      vertex 4.937296e+000 -8.713317e+000 1.068489e+001
      vertex 6.496764e+000 -5.851193e-007 1.338597e+001
      vertex 9.726531e+000 -4.767899e-007 1.090768e+001
    endloop
  endfacet
  facet normal -3.606459e-001 3.344515e-001 -8.706760e-001
    outer loop
      vertex 6.496764e+000 -5.851193e-007 1.338597e+001
      vertex 4.937296e+000 -8.713317e+000 1.068489e+001
      vertex 1.928383e+000 -8.713318e+000 1.193122e+001
    endloop
  endfacet
  facet normal -3.606459e-001 3.344514e-001 -8.706760e-001
    outer loop
      vertex 1.928383e+000 -8.713318e+000 1.193122e+001
      vertex 2.735624e+000 -6.532180e-007 1.494389e+001
      vertex 6.496764e+000 -5.851193e-007 1.338597e+001
    endloop
  endfacet
  facet normal -1.230097e-001 3.344515e-001 -9.343505e-001
    outer loop
      vertex 2.735624e+000 -6.532180e-007 1.494389e+001
      vertex 1.928383e+000 -8.713318e+000 1.193122e+001
      vertex -1.300578e+000 -8.713318e+000 1.235632e+001
    endloop
  endfacet
  facet normal -1.230096e-001 3.344514e-001 -9.343506e-001
    outer loop
      vertex -1.300578e+000 -8.713318e+000 1.235632e+001
      vertex -1.300578e+000 -6.764452e-007 1.547526e+001
      vertex 2.735624e+000 -6.532180e-007 1.494389e+001
    endloop
  endfacet
  facet normal 1.230095e-001 3.344514e-001 -9.343506e-001
    outer loop
      vertex -1.300578e+000 -6.764452e-007 1.547526e+001
      vertex -1.300578e+000 -8.713318e+000 1.235632e+001
      vertex -4.529540e+000 -8.713318e+000 1.193122e+001
    endloop
  endfacet
  facet normal 1.230096e-001 3.344513e-001 -9.343506e-001
    outer loop
      vertex -4.529540e+000 -8.713318e+000 1.193122e+001
      vertex -5.336780e+000 -6.532180e-007 1.494389e+001
      vertex -1.300578e+000 -6.764452e-007 1.547526e+001
    endloop
  endfacet
  facet normal 3.606459e-001 3.344513e-001 -8.706761e-001
    outer loop
      vertex -5.336780e+000 -6.532180e-007 1.494389e+001
      vertex -4.529540e+000 -8.713318e+000 1.193122e+001
      vertex -7.538453e+000 -8.713317e+000 1.068489e+001
    endloop
  endfacet
  facet normal 3.606457e-001 3.344514e-001 -8.706762e-001
    outer loop
      vertex -7.538453e+000 -8.713317e+000 1.068489e+001
      vertex -9.097920e+000 -5.851194e-007 1.338597e+001
      vertex -5.336780e+000 -6.532180e-007 1.494389e+001
    endloop
  endfacet
  facet normal 5.737044e-001 3.344514e-001 -7.476667e-001
    outer loop
      vertex -9.097920e+000 -5.851194e-007 1.338597e+001
      vertex -7.538453e+000 -8.713317e+000 1.068489e+001
      vertex -1.012226e+001 -8.713317e+000 8.702264e+000
    endloop
  endfacet
  facet normal 5.737045e-001 3.344514e-001 -7.476666e-001
    outer loop
      vertex -1.012226e+001 -8.713317e+000 8.702264e+000
      vertex -1.232769e+001 -4.767901e-007 1.090769e+001
      vertex -9.097920e+000 -5.851194e-007 1.338597e+001
    endloop
  endfacet
  facet normal 7.476665e-001 3.344513e-001 -5.737047e-001
    outer loop
      vertex -1.232769e+001 -4.767901e-007 1.090769e+001
      vertex -1.012226e+001 -8.713317e+000 8.702264e+000
      vertex -1.210489e+001 -8.713317e+000 6.118451e+000
    endloop
  endfacet
  facet normal 7.476664e-001 3.344514e-001 -5.737048e-001
    outer loop
      vertex -1.210489e+001 -8.713317e+000 6.118451e+000
      vertex -1.480597e+001 -3.356126e-007 7.677921e+000
      vertex -1.232769e+001 -4.767901e-007 1.090769e+001
    endloop
  endfacet
  facet normal 8.706760e-001 3.344514e-001 -3.606461e-001
    outer loop
      vertex -1.480597e+001 -3.356126e-007 7.677921e+000
      vertex -1.210489e+001 -8.713317e+000 6.118451e+000
      vertex -1.335123e+001 -8.713317e+000 3.109538e+000
    endloop
  endfacet
  facet normal 8.706760e-001 3.344514e-001 -3.606461e-001
    outer loop
      vertex -1.335123e+001 -8.713317e+000 3.109538e+000
      vertex -1.636389e+001 -1.712079e-007 3.916780e+000
      vertex -1.480597e+001 -3.356126e-007 7.677921e+000
    endloop
  endfacet
  facet normal 9.343505e-001 3.344513e-001 -1.230100e-001
    outer loop
      vertex -1.636389e+001 -1.712079e-007 3.916780e+000
      vertex -1.335123e+001 -8.713317e+000 3.109538e+000
      vertex -1.377633e+001 -8.713317e+000 -1.194227e-001
    endloop
  endfacet
  facet normal 9.343873e-001 3.343989e-001 -1.228732e-001
    outer loop
      vertex -1.377633e+001 -8.713317e+000 -1.194227e-001
      vertex -1.689496e+001 5.321936e-009 -1.217517e-001
      vertex -1.636389e+001 -1.712079e-007 3.916780e+000
    endloop
  endfacet
  facet normal 9.343506e-001 3.344515e-001 1.230091e-001
    outer loop
      vertex -1.689496e+001 5.321936e-009 -1.217517e-001
      vertex -1.377633e+001 -8.713317e+000 -1.194227e-001
      vertex -1.335123e+001 -8.713317e+000 -3.348384e+000
    endloop
  endfacet
  facet normal 9.343506e-001 3.344514e-001 1.230095e-001
    outer loop
      vertex -1.335123e+001 -8.713317e+000 -3.348384e+000
      vertex -1.636389e+001 1.816480e-007 -4.155623e+000
      vertex -1.689496e+001 5.321936e-009 -1.217517e-001
    endloop
  endfacet
  facet normal 8.706762e-001 3.344514e-001 3.606455e-001
    outer loop
      vertex -1.636389e+001 1.816480e-007 -4.155623e+000
      vertex -1.335123e+001 -8.713317e+000 -3.348384e+000
      vertex -1.210490e+001 -8.713317e+000 -6.357298e+000
    endloop
  endfacet
  facet normal 8.706762e-001 3.344514e-001 3.606455e-001
    outer loop
      vertex -1.210490e+001 -8.713317e+000 -6.357298e+000
      vertex -1.480598e+001 3.460528e-007 -7.916765e+000
      vertex -1.636389e+001 1.816480e-007 -4.155623e+000
    endloop
  endfacet
  facet normal 7.476666e-001 3.344514e-001 5.737046e-001
    outer loop
      vertex -1.480598e+001 3.460528e-007 -7.916765e+000
      vertex -1.210490e+001 -8.713317e+000 -6.357298e+000
      vertex -1.012227e+001 -8.713317e+000 -8.941110e+000
    endloop
  endfacet
  facet normal 7.476666e-001 3.344514e-001 5.737045e-001
    outer loop
      vertex -1.012227e+001 -8.713317e+000 -8.941110e+000
      vertex -1.232769e+001 4.872304e-007 -1.114653e+001
      vertex -1.480598e+001 3.460528e-007 -7.916765e+000
    endloop
  endfacet
  facet normal 5.737051e-001 3.344513e-001 7.476662e-001
    outer loop
      vertex -1.232769e+001 4.872304e-007 -1.114653e+001
      vertex -1.012227e+001 -8.713317e+000 -8.941110e+000
      vertex -7.538458e+000 -8.713317e+000 -1.092374e+001
    endloop
  endfacet
  facet normal 5.737051e-001 3.344513e-001 7.476662e-001
    outer loop
      vertex -7.538458e+000 -8.713317e+000 -1.092374e+001
      vertex -9.097927e+000 5.955599e-007 -1.362482e+001
      vertex -1.232769e+001 4.872304e-007 -1.114653e+001
    endloop
  endfacet
  facet normal 3.606462e-001 3.344514e-001 8.706760e-001
    outer loop
      vertex -9.097927e+000 5.955599e-007 -1.362482e+001
      vertex -7.538458e+000 -8.713317e+000 -1.092374e+001
      vertex -4.529546e+000 -8.713316e+000 -1.217008e+001
    endloop
  endfacet
  facet normal 3.606462e-001 3.344514e-001 8.706760e-001
    outer loop
      vertex -4.529546e+000 -8.713316e+000 -1.217008e+001
      vertex -5.336787e+000 6.636586e-007 -1.518274e+001
      vertex -9.097927e+000 5.955599e-007 -1.362482e+001
    endloop
  endfacet
  facet normal 1.230100e-001 3.344514e-001 9.343505e-001
    outer loop
      vertex -5.336787e+000 6.636586e-007 -1.518274e+001
      vertex -4.529546e+000 -8.713316e+000 -1.217008e+001
      vertex -1.300585e+000 -8.713316e+000 -1.259518e+001
    endloop
  endfacet
  facet normal 1.230100e-001 3.344513e-001 9.343505e-001
    outer loop
      vertex -1.300585e+000 -8.713316e+000 -1.259518e+001
      vertex -1.300586e+000 6.868858e-007 -1.571412e+001
      vertex -5.336787e+000 6.636586e-007 -1.518274e+001
    endloop
  endfacet
  facet normal -1.230091e-001 3.344514e-001 9.343506e-001
    outer loop
      vertex -1.300586e+000 6.868858e-007 -1.571412e+001
      vertex -1.300585e+000 -8.713316e+000 -1.259518e+001
      vertex 1.928377e+000 -8.713316e+000 -1.217008e+001
    endloop
  endfacet
  facet normal -1.230091e-001 3.344514e-001 9.343506e-001
    outer loop
      vertex 1.928377e+000 -8.713316e+000 -1.217008e+001
      vertex 2.735616e+000 6.636587e-007 -1.518274e+001
      vertex -1.300586e+000 6.868858e-007 -1.571412e+001
    endloop
  endfacet
  facet normal -3.606454e-001 3.344514e-001 8.706763e-001
    outer loop
      vertex 2.735616e+000 6.636587e-007 -1.518274e+001
      vertex 1.928377e+000 -8.713316e+000 -1.217008e+001
      vertex 4.937290e+000 -8.713317e+000 -1.092375e+001
    endloop
  endfacet
  facet normal -3.606454e-001 3.344513e-001 8.706763e-001
    outer loop
      vertex 4.937290e+000 -8.713317e+000 -1.092375e+001
      vertex 6.496758e+000 5.955602e-007 -1.362483e+001
      vertex 2.735616e+000 6.636587e-007 -1.518274e+001
    endloop
  endfacet
  facet normal -5.737041e-001 3.344514e-001 7.476669e-001
    outer loop
      vertex 6.496758e+000 5.955602e-007 -1.362483e+001
      vertex 4.937290e+000 -8.713317e+000 -1.092375e+001
      vertex 7.521104e+000 -8.713317e+000 -8.941120e+000
    endloop
  endfacet
  facet normal -5.737042e-001 3.344513e-001 7.476669e-001
    outer loop
      vertex 7.521104e+000 -8.713317e+000 -8.941120e+000
      vertex 9.726524e+000 4.872309e-007 -1.114654e+001
      vertex 6.496758e+000 5.955602e-007 -1.362483e+001
    endloop
  endfacet
  facet normal -7.476661e-001 3.344513e-001 5.737052e-001
    outer loop
      vertex 9.726524e+000 4.872309e-007 -1.114654e+001
      vertex 7.521104e+000 -8.713317e+000 -8.941120e+000
      vertex 9.503734e+000 -8.713317e+000 -6.357310e+000
    endloop
  endfacet
  facet normal -7.476662e-001 3.344513e-001 5.737051e-001
    outer loop
      vertex 9.503734e+000 -8.713317e+000 -6.357310e+000
      vertex 1.220481e+001 3.460535e-007 -7.916780e+000
      vertex 9.726524e+000 4.872309e-007 -1.114654e+001
    endloop
  endfacet
  facet normal -8.706758e-001 3.344513e-001 3.606465e-001
    outer loop
      vertex 1.220481e+001 3.460535e-007 -7.916780e+000
      vertex 9.503734e+000 -8.713317e+000 -6.357310e+000
      vertex 1.075007e+001 -8.713317e+000 -3.348398e+000
    endloop
  endfacet
  facet normal -8.706759e-001 3.344513e-001 3.606465e-001
    outer loop
      vertex 1.075007e+001 -8.713317e+000 -3.348398e+000
      vertex 1.376273e+001 1.816488e-007 -4.155640e+000
      vertex 1.220481e+001 3.460535e-007 -7.916780e+000
    endloop
  endfacet
  facet normal -9.343505e-001 3.344513e-001 1.230099e-001
    outer loop
      vertex 1.376273e+001 1.816488e-007 -4.155640e+000
      vertex 1.075007e+001 -8.713317e+000 -3.348398e+000
      vertex 1.117517e+001 -8.713317e+000 -1.194276e-001
    endloop
  endfacet
  facet normal -9.343505e-001 3.344514e-001 1.230101e-001
    outer loop
      vertex 1.117517e+001 -8.713317e+000 -1.194276e-001
      vertex 1.429411e+001 5.220328e-009 -1.194272e-001
      vertex 1.376273e+001 1.816488e-007 -4.155640e+000
    endloop
  endfacet
  facet normal -9.343506e-001 3.344514e-001 -1.230096e-001
    outer loop
      vertex 1.117517e+001 -8.713317e+000 -1.194276e-001
      vertex 8.056234e+000 -1.742663e+001 -1.194279e-001
      vertex 7.737409e+000 -1.742663e+001 2.302294e+000
    endloop
  endfacet
  facet normal -9.343506e-001 3.344513e-001 -1.230097e-001
    outer loop
      vertex 7.737409e+000 -1.742663e+001 2.302294e+000
      vertex 1.075007e+001 -8.713317e+000 3.109534e+000
      vertex 1.117517e+001 -8.713317e+000 -1.194276e-001
    endloop
  endfacet
  facet normal -8.706761e-001 3.344513e-001 -3.606458e-001
    outer loop
      vertex 1.075007e+001 -8.713317e+000 3.109534e+000
      vertex 7.737409e+000 -1.742663e+001 2.302294e+000
      vertex 6.802659e+000 -1.742663e+001 4.558979e+000
    endloop
  endfacet
  facet normal -8.706762e-001 3.344514e-001 -3.606457e-001
    outer loop
      vertex 6.802659e+000 -1.742663e+001 4.558979e+000
      vertex 9.503738e+000 -8.713317e+000 6.118448e+000
      vertex 1.075007e+001 -8.713317e+000 3.109534e+000
    endloop
  endfacet
  facet normal -7.476665e-001 3.344514e-001 -5.737047e-001
    outer loop
      vertex 9.503738e+000 -8.713317e+000 6.118448e+000
      vertex 6.802659e+000 -1.742663e+001 4.558979e+000
      vertex 5.315687e+000 -1.742663e+001 6.496838e+000
    endloop
  endfacet
  facet normal -7.476665e-001 3.344515e-001 -5.737046e-001
    outer loop
      vertex 5.315687e+000 -1.742663e+001 6.496838e+000
      vertex 7.521109e+000 -8.713317e+000 8.702262e+000
      vertex 9.503738e+000 -8.713317e+000 6.118448e+000
    endloop
  endfacet
  facet normal -5.737047e-001 3.344515e-001 -7.476665e-001
    outer loop
      vertex 7.521109e+000 -8.713317e+000 8.702262e+000
      vertex 5.315687e+000 -1.742663e+001 6.496838e+000
      vertex 3.377828e+000 -1.742663e+001 7.983810e+000
    endloop
  endfacet
  facet normal -5.737047e-001 3.344515e-001 -7.476665e-001
    outer loop
      vertex 3.377828e+000 -1.742663e+001 7.983810e+000
      vertex 4.937296e+000 -8.713317e+000 1.068489e+001
      vertex 7.521109e+000 -8.713317e+000 8.702262e+000
    endloop
  endfacet
  facet normal -3.606460e-001 3.344515e-001 -8.706760e-001
    outer loop
      vertex 4.937296e+000 -8.713317e+000 1.068489e+001
      vertex 3.377828e+000 -1.742663e+001 7.983810e+000
      vertex 1.121143e+000 -1.742663e+001 8.918560e+000
    endloop
  endfacet
  facet normal -3.606458e-001 3.344514e-001 -8.706761e-001
    outer loop
      vertex 1.121143e+000 -1.742663e+001 8.918560e+000
      vertex 1.928383e+000 -8.713318e+000 1.193122e+001
      vertex 4.937296e+000 -8.713317e+000 1.068489e+001
    endloop
  endfacet
  facet normal -1.230097e-001 3.344515e-001 -9.343505e-001
    outer loop
      vertex 1.928383e+000 -8.713318e+000 1.193122e+001
      vertex 1.121143e+000 -1.742663e+001 8.918560e+000
      vertex -1.300578e+000 -1.742663e+001 9.237386e+000
    endloop
  endfacet
  facet normal -1.230097e-001 3.344515e-001 -9.343505e-001
    outer loop
      vertex -1.300578e+000 -1.742663e+001 9.237386e+000
      vertex -1.300578e+000 -8.713318e+000 1.235632e+001
      vertex 1.928383e+000 -8.713318e+000 1.193122e+001
    endloop
  endfacet
  facet normal 1.230096e-001 3.344515e-001 -9.343505e-001
    outer loop
      vertex -1.300578e+000 -8.713318e+000 1.235632e+001
      vertex -1.300578e+000 -1.742663e+001 9.237386e+000
      vertex -3.722299e+000 -1.742663e+001 8.918560e+000
    endloop
  endfacet
  facet normal 1.230094e-001 3.344516e-001 -9.343505e-001
    outer loop
      vertex -3.722299e+000 -1.742663e+001 8.918560e+000
      vertex -4.529540e+000 -8.713318e+000 1.193122e+001
      vertex -1.300578e+000 -8.713318e+000 1.235632e+001
    endloop
  endfacet
  facet normal 3.606457e-001 3.344515e-001 -8.706761e-001
    outer loop
      vertex -4.529540e+000 -8.713318e+000 1.193122e+001
      vertex -3.722299e+000 -1.742663e+001 8.918560e+000
      vertex -5.978984e+000 -1.742663e+001 7.983811e+000
    endloop
  endfacet
  facet normal 3.606459e-001 3.344515e-001 -8.706760e-001
    outer loop
      vertex -5.978984e+000 -1.742663e+001 7.983811e+000
      vertex -7.538453e+000 -8.713317e+000 1.068489e+001
      vertex -4.529540e+000 -8.713318e+000 1.193122e+001
    endloop
  endfacet
  facet normal 5.737045e-001 3.344515e-001 -7.476666e-001
    outer loop
      vertex -7.538453e+000 -8.713317e+000 1.068489e+001
      vertex -5.978984e+000 -1.742663e+001 7.983811e+000
      vertex -7.916844e+000 -1.742663e+001 6.496840e+000
    endloop
  endfacet
  facet normal 5.737045e-001 3.344515e-001 -7.476666e-001
    outer loop
      vertex -7.916844e+000 -1.742663e+001 6.496840e+000
      vertex -1.012226e+001 -8.713317e+000 8.702264e+000
      vertex -7.538453e+000 -8.713317e+000 1.068489e+001
    endloop
  endfacet
  facet normal 7.476663e-001 3.344515e-001 -5.737049e-001
    outer loop
      vertex -1.012226e+001 -8.713317e+000 8.702264e+000
      vertex -7.916844e+000 -1.742663e+001 6.496840e+000
      vertex -9.403816e+000 -1.742663e+001 4.558981e+000
    endloop
  endfacet
  facet normal 7.476665e-001 3.344514e-001 -5.737047e-001
    outer loop
      vertex -9.403816e+000 -1.742663e+001 4.558981e+000
      vertex -1.210489e+001 -8.713317e+000 6.118451e+000
      vertex -1.012226e+001 -8.713317e+000 8.702264e+000
    endloop
  endfacet
  facet normal 8.706760e-001 3.344514e-001 -3.606460e-001
    outer loop
      vertex -1.210489e+001 -8.713317e+000 6.118451e+000
      vertex -9.403816e+000 -1.742663e+001 4.558981e+000
      vertex -1.033857e+001 -1.742663e+001 2.302297e+000
    endloop
  endfacet
  facet normal 8.706760e-001 3.344514e-001 -3.606460e-001
    outer loop
      vertex -1.033857e+001 -1.742663e+001 2.302297e+000
      vertex -1.335123e+001 -8.713317e+000 3.109538e+000
      vertex -1.210489e+001 -8.713317e+000 6.118451e+000
    endloop
  endfacet
  facet normal 9.343505e-001 3.344514e-001 -1.230100e-001
    outer loop
      vertex -1.335123e+001 -8.713317e+000 3.109538e+000
      vertex -1.033857e+001 -1.742663e+001 2.302297e+000
      vertex -1.065739e+001 -1.742663e+001 -1.194243e-001
    endloop
  endfacet
  facet normal 9.343505e-001 3.344513e-001 -1.230100e-001
    outer loop
      vertex -1.065739e+001 -1.742663e+001 -1.194243e-001
      vertex -1.377633e+001 -8.713317e+000 -1.194227e-001
      vertex -1.335123e+001 -8.713317e+000 3.109538e+000
    endloop
  endfacet
  facet normal 9.343506e-001 3.344514e-001 1.230092e-001
    outer loop
      vertex -1.377633e+001 -8.713317e+000 -1.194227e-001
      vertex -1.065739e+001 -1.742663e+001 -1.194243e-001
      vertex -1.033857e+001 -1.742663e+001 -2.541146e+000
    endloop
  endfacet
  facet normal 9.343506e-001 3.344514e-001 1.230091e-001
    outer loop
      vertex -1.033857e+001 -1.742663e+001 -2.541146e+000
      vertex -1.335123e+001 -8.713317e+000 -3.348384e+000
      vertex -1.377633e+001 -8.713317e+000 -1.194227e-001
    endloop
  endfacet
  facet normal 8.706762e-001 3.344514e-001 3.606454e-001
    outer loop
      vertex -1.335123e+001 -8.713317e+000 -3.348384e+000
      vertex -1.033857e+001 -1.742663e+001 -2.541146e+000
      vertex -9.403819e+000 -1.742663e+001 -4.797831e+000
    endloop
  endfacet
  facet normal 8.706762e-001 3.344514e-001 3.606454e-001
    outer loop
      vertex -9.403819e+000 -1.742663e+001 -4.797831e+000
      vertex -1.210490e+001 -8.713317e+000 -6.357298e+000
      vertex -1.335123e+001 -8.713317e+000 -3.348384e+000
    endloop
  endfacet
  facet normal 7.476668e-001 3.344514e-001 5.737042e-001
    outer loop
      vertex -1.210490e+001 -8.713317e+000 -6.357298e+000
      vertex -9.403819e+000 -1.742663e+001 -4.797831e+000
      vertex -7.916849e+000 -1.742663e+001 -6.735691e+000
    endloop
  endfacet
  facet normal 7.476667e-001 3.344513e-001 5.737046e-001
    outer loop
      vertex -7.916849e+000 -1.742663e+001 -6.735691e+000
      vertex -1.012227e+001 -8.713317e+000 -8.941110e+000
      vertex -1.210490e+001 -8.713317e+000 -6.357298e+000
    endloop
  endfacet
  facet normal 5.737048e-001 3.344512e-001 7.476665e-001
    outer loop
      vertex -1.012227e+001 -8.713317e+000 -8.941110e+000
      vertex -7.916849e+000 -1.742663e+001 -6.735691e+000
      vertex -5.978989e+000 -1.742663e+001 -8.222664e+000
    endloop
  endfacet
  facet normal 5.737051e-001 3.344513e-001 7.476662e-001
    outer loop
      vertex -5.978989e+000 -1.742663e+001 -8.222664e+000
      vertex -7.538458e+000 -8.713317e+000 -1.092374e+001
      vertex -1.012227e+001 -8.713317e+000 -8.941110e+000
    endloop
  endfacet
  facet normal 3.606463e-001 3.344513e-001 8.706759e-001
    outer loop
      vertex -7.538458e+000 -8.713317e+000 -1.092374e+001
      vertex -5.978989e+000 -1.742663e+001 -8.222664e+000
      vertex -3.722304e+000 -1.742663e+001 -9.157414e+000
    endloop
  endfacet
  facet normal 3.606462e-001 3.344513e-001 8.706760e-001
    outer loop
      vertex -3.722304e+000 -1.742663e+001 -9.157414e+000
      vertex -4.529546e+000 -8.713316e+000 -1.217008e+001
      vertex -7.538458e+000 -8.713317e+000 -1.092374e+001
    endloop
  endfacet
  facet normal 1.230100e-001 3.344513e-001 9.343505e-001
    outer loop
      vertex -4.529546e+000 -8.713316e+000 -1.217008e+001
      vertex -3.722304e+000 -1.742663e+001 -9.157414e+000
      vertex -1.300583e+000 -1.742663e+001 -9.476241e+000
    endloop
  endfacet
  facet normal 1.230100e-001 3.344513e-001 9.343505e-001
    outer loop
      vertex -1.300583e+000 -1.742663e+001 -9.476241e+000
      vertex -1.300585e+000 -8.713316e+000 -1.259518e+001
      vertex -4.529546e+000 -8.713316e+000 -1.217008e+001
    endloop
  endfacet
  facet normal -1.230093e-001 3.344512e-001 9.343506e-001
    outer loop
      vertex -1.300585e+000 -8.713316e+000 -1.259518e+001
      vertex -1.300583e+000 -1.742663e+001 -9.476241e+000
      vertex 1.121138e+000 -1.742663e+001 -9.157416e+000
    endloop
  endfacet
  facet normal -1.230092e-001 3.344513e-001 9.343506e-001
    outer loop
      vertex 1.121138e+000 -1.742663e+001 -9.157416e+000
      vertex 1.928377e+000 -8.713316e+000 -1.217008e+001
      vertex -1.300585e+000 -8.713316e+000 -1.259518e+001
    endloop
  endfacet
  facet normal -3.606453e-001 3.344513e-001 8.706763e-001
    outer loop
      vertex 1.928377e+000 -8.713316e+000 -1.217008e+001
      vertex 1.121138e+000 -1.742663e+001 -9.157416e+000
      vertex 3.377823e+000 -1.742663e+001 -8.222669e+000
    endloop
  endfacet
  facet normal -3.606454e-001 3.344512e-001 8.706763e-001
    outer loop
      vertex 3.377823e+000 -1.742663e+001 -8.222669e+000
      vertex 4.937290e+000 -8.713317e+000 -1.092375e+001
      vertex 1.928377e+000 -8.713316e+000 -1.217008e+001
    endloop
  endfacet
  facet normal -5.737041e-001 3.344513e-001 7.476670e-001
    outer loop
      vertex 4.937290e+000 -8.713317e+000 -1.092375e+001
      vertex 3.377823e+000 -1.742663e+001 -8.222669e+000
      vertex 5.315683e+000 -1.742663e+001 -6.735699e+000
    endloop
  endfacet
  facet normal -5.737041e-001 3.344513e-001 7.476670e-001
    outer loop
      vertex 5.315683e+000 -1.742663e+001 -6.735699e+000
      vertex 7.521104e+000 -8.713317e+000 -8.941120e+000
      vertex 4.937290e+000 -8.713317e+000 -1.092375e+001
    endloop
  endfacet
  facet normal -7.476661e-001 3.344513e-001 5.737052e-001
    outer loop
      vertex 7.521104e+000 -8.713317e+000 -8.941120e+000
      vertex 5.315683e+000 -1.742663e+001 -6.735699e+000
      vertex 6.802656e+000 -1.742663e+001 -4.797840e+000
    endloop
  endfacet
  facet normal -7.476662e-001 3.344513e-001 5.737052e-001
    outer loop
      vertex 6.802656e+000 -1.742663e+001 -4.797840e+000
      vertex 9.503734e+000 -8.713317e+000 -6.357310e+000
      vertex 7.521104e+000 -8.713317e+000 -8.941120e+000
    endloop
  endfacet
  facet normal -8.706759e-001 3.344513e-001 3.606463e-001
    outer loop
      vertex 9.503734e+000 -8.713317e+000 -6.357310e+000
      vertex 6.802656e+000 -1.742663e+001 -4.797840e+000
      vertex 7.737407e+000 -1.742663e+001 -2.541156e+000
    endloop
  endfacet
  facet normal -8.706758e-001 3.344514e-001 3.606466e-001
    outer loop
      vertex 7.737407e+000 -1.742663e+001 -2.541156e+000
      vertex 1.075007e+001 -8.713317e+000 -3.348398e+000
      vertex 9.503734e+000 -8.713317e+000 -6.357310e+000
    endloop
  endfacet
  facet normal -9.343505e-001 3.344514e-001 1.230100e-001
    outer loop
      vertex 1.075007e+001 -8.713317e+000 -3.348398e+000
      vertex 7.737407e+000 -1.742663e+001 -2.541156e+000
      vertex 8.056234e+000 -1.742663e+001 -1.194279e-001
    endloop
  endfacet
  facet normal -9.343505e-001 3.344513e-001 1.230099e-001
    outer loop
      vertex 8.056234e+000 -1.742663e+001 -1.194279e-001
      vertex 1.117517e+001 -8.713317e+000 -1.194276e-001
      vertex 1.075007e+001 -8.713317e+000 -3.348398e+000
    endloop
  endfacet
  facet normal -9.343505e-001 3.344514e-001 -1.230098e-001
    outer loop
      vertex 8.056234e+000 -1.742663e+001 -1.194279e-001
      vertex 4.937296e+000 -2.613995e+001 -1.194283e-001
      vertex 4.724745e+000 -2.613995e+001 1.495052e+000
    endloop
  endfacet
  facet normal -9.343505e-001 3.344515e-001 -1.230096e-001
    outer loop
      vertex 4.724745e+000 -2.613995e+001 1.495052e+000
      vertex 7.737409e+000 -1.742663e+001 2.302294e+000
      vertex 8.056234e+000 -1.742663e+001 -1.194279e-001
    endloop
  endfacet
  facet normal -8.706761e-001 3.344515e-001 -3.606457e-001
    outer loop
      vertex 7.737409e+000 -1.742663e+001 2.302294e+000
      vertex 4.724745e+000 -2.613995e+001 1.495052e+000
      vertex 4.101579e+000 -2.613995e+001 2.999509e+000
    endloop
  endfacet
  facet normal -8.706760e-001 3.344514e-001 -3.606459e-001
    outer loop
      vertex 4.101579e+000 -2.613995e+001 2.999509e+000
      vertex 6.802659e+000 -1.742663e+001 4.558979e+000
      vertex 7.737409e+000 -1.742663e+001 2.302294e+000
    endloop
  endfacet
  facet normal -7.476665e-001 3.344515e-001 -5.737047e-001
    outer loop
      vertex 6.802659e+000 -1.742663e+001 4.558979e+000
      vertex 4.101579e+000 -2.613995e+001 2.999509e+000
      vertex 3.110264e+000 -2.613995e+001 4.291416e+000
    endloop
  endfacet
  facet normal -7.476665e-001 3.344515e-001 -5.737046e-001
    outer loop
      vertex 3.110264e+000 -2.613995e+001 4.291416e+000
      vertex 5.315687e+000 -1.742663e+001 6.496838e+000
      vertex 6.802659e+000 -1.742663e+001 4.558979e+000
    endloop
  endfacet
  facet normal -5.737047e-001 3.344515e-001 -7.476665e-001
    outer loop
      vertex 5.315687e+000 -1.742663e+001 6.496838e+000
      vertex 3.110264e+000 -2.613995e+001 4.291416e+000
      vertex 1.818358e+000 -2.613995e+001 5.282730e+000
    endloop
  endfacet
  facet normal -5.737047e-001 3.344514e-001 -7.476665e-001
    outer loop
      vertex 1.818358e+000 -2.613995e+001 5.282730e+000
      vertex 3.377828e+000 -1.742663e+001 7.983810e+000
      vertex 5.315687e+000 -1.742663e+001 6.496838e+000
    endloop
  endfacet
  facet normal -3.606458e-001 3.344515e-001 -8.706761e-001
    outer loop
      vertex 3.377828e+000 -1.742663e+001 7.983810e+000
      vertex 1.818358e+000 -2.613995e+001 5.282730e+000
      vertex 3.139019e-001 -2.613995e+001 5.905896e+000
    endloop
  endfacet
  facet normal -3.606460e-001 3.344515e-001 -8.706760e-001
    outer loop
      vertex 3.139019e-001 -2.613995e+001 5.905896e+000
      vertex 1.121143e+000 -1.742663e+001 8.918560e+000
      vertex 3.377828e+000 -1.742663e+001 7.983810e+000
    endloop
  endfacet
  facet normal -1.230097e-001 3.344515e-001 -9.343505e-001
    outer loop
      vertex 1.121143e+000 -1.742663e+001 8.918560e+000
      vertex 3.139019e-001 -2.613995e+001 5.905896e+000
      vertex -1.300579e+000 -2.613995e+001 6.118447e+000
    endloop
  endfacet
  facet normal -1.230096e-001 3.344515e-001 -9.343505e-001
    outer loop
      vertex -1.300579e+000 -2.613995e+001 6.118447e+000
      vertex -1.300578e+000 -1.742663e+001 9.237386e+000
      vertex 1.121143e+000 -1.742663e+001 8.918560e+000
    endloop
  endfacet
  facet normal 1.230095e-001 3.344515e-001 -9.343505e-001
    outer loop
      vertex -1.300578e+000 -1.742663e+001 9.237386e+000
      vertex -1.300579e+000 -2.613995e+001 6.118447e+000
      vertex -2.915059e+000 -2.613995e+001 5.905897e+000
    endloop
  endfacet
  facet normal 1.230096e-001 3.344514e-001 -9.343505e-001
    outer loop
      vertex -2.915059e+000 -2.613995e+001 5.905897e+000
      vertex -3.722299e+000 -1.742663e+001 8.918560e+000
      vertex -1.300578e+000 -1.742663e+001 9.237386e+000
    endloop
  endfacet
  facet normal 3.606457e-001 3.344514e-001 -8.706761e-001
    outer loop
      vertex -3.722299e+000 -1.742663e+001 8.918560e+000
      vertex -2.915059e+000 -2.613995e+001 5.905897e+000
      vertex -4.419516e+000 -2.613995e+001 5.282731e+000
    endloop
  endfacet
  facet normal 3.606457e-001 3.344515e-001 -8.706761e-001
    outer loop
      vertex -4.419516e+000 -2.613995e+001 5.282731e+000
      vertex -5.978984e+000 -1.742663e+001 7.983811e+000
      vertex -3.722299e+000 -1.742663e+001 8.918560e+000
    endloop
  endfacet
  facet normal 5.737044e-001 3.344515e-001 -7.476667e-001
    outer loop
      vertex -5.978984e+000 -1.742663e+001 7.983811e+000
      vertex -4.419516e+000 -2.613995e+001 5.282731e+000
      vertex -5.711422e+000 -2.613995e+001 4.291417e+000
    endloop
  endfacet
  facet normal 5.737045e-001 3.344514e-001 -7.476667e-001
    outer loop
      vertex -5.711422e+000 -2.613995e+001 4.291417e+000
      vertex -7.916844e+000 -1.742663e+001 6.496840e+000
      vertex -5.978984e+000 -1.742663e+001 7.983811e+000
    endloop
  endfacet
  facet normal 7.476665e-001 3.344514e-001 -5.737047e-001
    outer loop
      vertex -7.916844e+000 -1.742663e+001 6.496840e+000
      vertex -5.711422e+000 -2.613995e+001 4.291417e+000
      vertex -6.702736e+000 -2.613995e+001 2.999511e+000
    endloop
  endfacet
  facet normal 7.476662e-001 3.344515e-001 -5.737050e-001
    outer loop
      vertex -6.702736e+000 -2.613995e+001 2.999511e+000
      vertex -9.403816e+000 -1.742663e+001 4.558981e+000
      vertex -7.916844e+000 -1.742663e+001 6.496840e+000
    endloop
  endfacet
  facet normal 8.706759e-001 3.344515e-001 -3.606462e-001
    outer loop
      vertex -9.403816e+000 -1.742663e+001 4.558981e+000
      vertex -6.702736e+000 -2.613995e+001 2.999511e+000
      vertex -7.325903e+000 -2.613995e+001 1.495054e+000
    endloop
  endfacet
  facet normal 8.706760e-001 3.344515e-001 -3.606460e-001
    outer loop
      vertex -7.325903e+000 -2.613995e+001 1.495054e+000
      vertex -1.033857e+001 -1.742663e+001 2.302297e+000
      vertex -9.403816e+000 -1.742663e+001 4.558981e+000
    endloop
  endfacet
  facet normal 9.343504e-001 3.344514e-001 -1.230100e-001
    outer loop
      vertex -1.033857e+001 -1.742663e+001 2.302297e+000
      vertex -7.325903e+000 -2.613995e+001 1.495054e+000
      vertex -7.538454e+000 -2.613995e+001 -1.194259e-001
    endloop
  endfacet
  facet normal 9.343505e-001 3.344514e-001 -1.230100e-001
    outer loop
      vertex -7.538454e+000 -2.613995e+001 -1.194259e-001
      vertex -1.065739e+001 -1.742663e+001 -1.194243e-001
      vertex -1.033857e+001 -1.742663e+001 2.302297e+000
    endloop
  endfacet
  facet normal 9.343506e-001 3.344515e-001 1.230091e-001
    outer loop
      vertex -1.065739e+001 -1.742663e+001 -1.194243e-001
      vertex -7.538454e+000 -2.613995e+001 -1.194259e-001
      vertex -7.325904e+000 -2.613995e+001 -1.733907e+000
    endloop
  endfacet
  facet normal 9.343506e-001 3.344514e-001 1.230092e-001
    outer loop
      vertex -7.325904e+000 -2.613995e+001 -1.733907e+000
      vertex -1.033857e+001 -1.742663e+001 -2.541146e+000
      vertex -1.065739e+001 -1.742663e+001 -1.194243e-001
    endloop
  endfacet
  facet normal 8.706762e-001 3.344514e-001 3.606455e-001
    outer loop
      vertex -1.033857e+001 -1.742663e+001 -2.541146e+000
      vertex -7.325904e+000 -2.613995e+001 -1.733907e+000
      vertex -6.702739e+000 -2.613995e+001 -3.238363e+000
    endloop
  endfacet
  facet normal 8.706762e-001 3.344514e-001 3.606455e-001
    outer loop
      vertex -6.702739e+000 -2.613995e+001 -3.238363e+000
      vertex -9.403819e+000 -1.742663e+001 -4.797831e+000
      vertex -1.033857e+001 -1.742663e+001 -2.541146e+000
    endloop
  endfacet
  facet normal 7.476668e-001 3.344514e-001 5.737042e-001
    outer loop
      vertex -9.403819e+000 -1.742663e+001 -4.797831e+000
      vertex -6.702739e+000 -2.613995e+001 -3.238363e+000
      vertex -5.711425e+000 -2.613995e+001 -4.530270e+000
    endloop
  endfacet
  facet normal 7.476668e-001 3.344514e-001 5.737042e-001
    outer loop
      vertex -5.711425e+000 -2.613995e+001 -4.530270e+000
      vertex -7.916849e+000 -1.742663e+001 -6.735691e+000
      vertex -9.403819e+000 -1.742663e+001 -4.797831e+000
    endloop
  endfacet
  facet normal 5.737050e-001 3.344514e-001 7.476663e-001
    outer loop
      vertex -7.916849e+000 -1.742663e+001 -6.735691e+000
      vertex -5.711425e+000 -2.613995e+001 -4.530270e+000
      vertex -4.419518e+000 -2.613995e+001 -5.521585e+000
    endloop
  endfacet
  facet normal 5.737048e-001 3.344514e-001 7.476664e-001
    outer loop
      vertex -4.419518e+000 -2.613995e+001 -5.521585e+000
      vertex -5.978989e+000 -1.742663e+001 -8.222664e+000
      vertex -7.916849e+000 -1.742663e+001 -6.735691e+000
    endloop
  endfacet
  facet normal 3.606461e-001 3.344514e-001 8.706760e-001
    outer loop
      vertex -5.978989e+000 -1.742663e+001 -8.222664e+000
      vertex -4.419518e+000 -2.613995e+001 -5.521585e+000
      vertex -2.915062e+000 -2.613995e+001 -6.144752e+000
    endloop
  endfacet
  facet normal 3.606463e-001 3.344514e-001 8.706759e-001
    outer loop
      vertex -2.915062e+000 -2.613995e+001 -6.144752e+000
      vertex -3.722304e+000 -1.742663e+001 -9.157414e+000
      vertex -5.978989e+000 -1.742663e+001 -8.222664e+000
    endloop
  endfacet
  facet normal 1.230100e-001 3.344514e-001 9.343504e-001
    outer loop
      vertex -3.722304e+000 -1.742663e+001 -9.157414e+000
      vertex -2.915062e+000 -2.613995e+001 -6.144752e+000
      vertex -1.300582e+000 -2.613995e+001 -6.357303e+000
    endloop
  endfacet
  facet normal 1.230100e-001 3.344514e-001 9.343504e-001
    outer loop
      vertex -1.300582e+000 -2.613995e+001 -6.357303e+000
      vertex -1.300583e+000 -1.742663e+001 -9.476241e+000
      vertex -3.722304e+000 -1.742663e+001 -9.157414e+000
    endloop
  endfacet
  facet normal -1.230091e-001 3.344514e-001 9.343506e-001
    outer loop
      vertex -1.300583e+000 -1.742663e+001 -9.476241e+000
      vertex -1.300582e+000 -2.613995e+001 -6.357303e+000
      vertex 3.138987e-001 -2.613995e+001 -6.144753e+000
    endloop
  endfacet
  facet normal -1.230092e-001 3.344514e-001 9.343506e-001
    outer loop
      vertex 3.138987e-001 -2.613995e+001 -6.144753e+000
      vertex 1.121138e+000 -1.742663e+001 -9.157416e+000
      vertex -1.300583e+000 -1.742663e+001 -9.476241e+000
    endloop
  endfacet
  facet normal -3.606453e-001 3.344514e-001 8.706763e-001
    outer loop
      vertex 1.121138e+000 -1.742663e+001 -9.157416e+000
      vertex 3.138987e-001 -2.613995e+001 -6.144753e+000
      vertex 1.818355e+000 -2.613995e+001 -5.521588e+000
    endloop
  endfacet
  facet normal -3.606453e-001 3.344514e-001 8.706763e-001
    outer loop
      vertex 1.818355e+000 -2.613995e+001 -5.521588e+000
      vertex 3.377823e+000 -1.742663e+001 -8.222669e+000
      vertex 1.121138e+000 -1.742663e+001 -9.157416e+000
    endloop
  endfacet
  facet normal -5.737043e-001 3.344514e-001 7.476668e-001
    outer loop
      vertex 3.377823e+000 -1.742663e+001 -8.222669e+000
      vertex 1.818355e+000 -2.613995e+001 -5.521588e+000
      vertex 3.110262e+000 -2.613995e+001 -4.530274e+000
    endloop
  endfacet
  facet normal -5.737041e-001 3.344515e-001 7.476669e-001
    outer loop
      vertex 3.110262e+000 -2.613995e+001 -4.530274e+000
      vertex 5.315683e+000 -1.742663e+001 -6.735699e+000
      vertex 3.377823e+000 -1.742663e+001 -8.222669e+000
    endloop
  endfacet
  facet normal -7.476661e-001 3.344514e-001 5.737051e-001
    outer loop
      vertex 5.315683e+000 -1.742663e+001 -6.735699e+000
      vertex 3.110262e+000 -2.613995e+001 -4.530274e+000
      vertex 4.101577e+000 -2.613995e+001 -3.238369e+000
    endloop
  endfacet
  facet normal -7.476661e-001 3.344514e-001 5.737052e-001
    outer loop
      vertex 4.101577e+000 -2.613995e+001 -3.238369e+000
      vertex 6.802656e+000 -1.742663e+001 -4.797840e+000
      vertex 5.315683e+000 -1.742663e+001 -6.735699e+000
    endloop
  endfacet
  facet normal -8.706757e-001 3.344515e-001 3.606465e-001
    outer loop
      vertex 6.802656e+000 -1.742663e+001 -4.797840e+000
      vertex 4.101577e+000 -2.613995e+001 -3.238369e+000
      vertex 4.724744e+000 -2.613995e+001 -1.733914e+000
    endloop
  endfacet
  facet normal -8.706759e-001 3.344514e-001 3.606463e-001
    outer loop
      vertex 4.724744e+000 -2.613995e+001 -1.733914e+000
      vertex 7.737407e+000 -1.742663e+001 -2.541156e+000
      vertex 6.802656e+000 -1.742663e+001 -4.797840e+000
    endloop
  endfacet
  facet normal -9.343505e-001 3.344514e-001 1.230099e-001
    outer loop
      vertex 7.737407e+000 -1.742663e+001 -2.541156e+000
      vertex 4.724744e+000 -2.613995e+001 -1.733914e+000
      vertex 4.937296e+000 -2.613995e+001 -1.194283e-001
    endloop
  endfacet
  facet normal -9.343505e-001 3.344514e-001 1.230100e-001
    outer loop
      vertex 4.937296e+000 -2.613995e+001 -1.194283e-001
      vertex 8.056234e+000 -1.742663e+001 -1.194279e-001
      vertex 7.737407e+000 -1.742663e+001 -2.541156e+000
    endloop
  endfacet
  facet normal -9.343505e-001 3.344514e-001 -1.230097e-001
    outer loop
      vertex 4.937296e+000 -2.613995e+001 -1.194283e-001
      vertex 1.818358e+000 -3.485327e+001 -1.194287e-001
      vertex 1.712083e+000 -3.485327e+001 6.878117e-001
    endloop
  endfacet
  facet normal -9.343505e-001 3.344514e-001 -1.230098e-001
    outer loop
      vertex 1.712083e+000 -3.485327e+001 6.878117e-001
      vertex 4.724745e+000 -2.613995e+001 1.495052e+000
      vertex 4.937296e+000 -2.613995e+001 -1.194283e-001
    endloop
  endfacet
  facet normal -8.706761e-001 3.344514e-001 -3.606458e-001
    outer loop
      vertex 4.724745e+000 -2.613995e+001 1.495052e+000
      vertex 1.712083e+000 -3.485327e+001 6.878117e-001
      vertex 1.400500e+000 -3.485327e+001 1.440040e+000
    endloop
  endfacet
  facet normal -8.706762e-001 3.344514e-001 -3.606457e-001
    outer loop
      vertex 1.400500e+000 -3.485327e+001 1.440040e+000
      vertex 4.101579e+000 -2.613995e+001 2.999509e+000
      vertex 4.724745e+000 -2.613995e+001 1.495052e+000
    endloop
  endfacet
  facet normal -7.476665e-001 3.344514e-001 -5.737047e-001
    outer loop
      vertex 4.101579e+000 -2.613995e+001 2.999509e+000
      vertex 1.400500e+000 -3.485327e+001 1.440040e+000
      vertex 9.048426e-001 -3.485327e+001 2.085993e+000
    endloop
  endfacet
  facet normal -7.476664e-001 3.344515e-001 -5.737047e-001
    outer loop
      vertex 9.048426e-001 -3.485327e+001 2.085993e+000
      vertex 3.110264e+000 -2.613995e+001 4.291416e+000
      vertex 4.101579e+000 -2.613995e+001 2.999509e+000
    endloop
  endfacet
  facet normal -5.737046e-001 3.344514e-001 -7.476665e-001
    outer loop
      vertex 3.110264e+000 -2.613995e+001 4.291416e+000
      vertex 9.048426e-001 -3.485327e+001 2.085993e+000
      vertex 2.588896e-001 -3.485327e+001 2.581650e+000
    endloop
  endfacet
  facet normal -5.737047e-001 3.344514e-001 -7.476665e-001
    outer loop
      vertex 2.588896e-001 -3.485327e+001 2.581650e+000
      vertex 1.818358e+000 -2.613995e+001 5.282730e+000
      vertex 3.110264e+000 -2.613995e+001 4.291416e+000
    endloop
  endfacet
  facet normal -3.606459e-001 3.344515e-001 -8.706760e-001
    outer loop
      vertex 1.818358e+000 -2.613995e+001 5.282730e+000
      vertex 2.588896e-001 -3.485327e+001 2.581650e+000
      vertex -4.933386e-001 -3.485327e+001 2.893234e+000
    endloop
  endfacet
  facet normal -3.606458e-001 3.344515e-001 -8.706760e-001
    outer loop
      vertex -4.933386e-001 -3.485327e+001 2.893234e+000
      vertex 3.139019e-001 -2.613995e+001 5.905896e+000
      vertex 1.818358e+000 -2.613995e+001 5.282730e+000
    endloop
  endfacet
  facet normal -1.230099e-001 3.344515e-001 -9.343505e-001
    outer loop
      vertex 3.139019e-001 -2.613995e+001 5.905896e+000
      vertex -4.933386e-001 -3.485327e+001 2.893234e+000
      vertex -1.300579e+000 -3.485327e+001 2.999509e+000
    endloop
  endfacet
  facet normal -1.230098e-001 3.344515e-001 -9.343505e-001
    outer loop
      vertex -1.300579e+000 -3.485327e+001 2.999509e+000
      vertex -1.300579e+000 -2.613995e+001 6.118447e+000
      vertex 3.139019e-001 -2.613995e+001 5.905896e+000
    endloop
  endfacet
  facet normal 1.230094e-001 3.344515e-001 -9.343505e-001
    outer loop
      vertex -1.300579e+000 -2.613995e+001 6.118447e+000
      vertex -1.300579e+000 -3.485327e+001 2.999509e+000
      vertex -2.107819e+000 -3.485327e+001 2.893234e+000
    endloop
  endfacet
  facet normal 1.230094e-001 3.344515e-001 -9.343506e-001
    outer loop
      vertex -2.107819e+000 -3.485327e+001 2.893234e+000
      vertex -2.915059e+000 -2.613995e+001 5.905897e+000
      vertex -1.300579e+000 -2.613995e+001 6.118447e+000
    endloop
  endfacet
  facet normal 3.606456e-001 3.344515e-001 -8.706762e-001
    outer loop
      vertex -2.915059e+000 -2.613995e+001 5.905897e+000
      vertex -2.107819e+000 -3.485327e+001 2.893234e+000
      vertex -2.860047e+000 -3.485327e+001 2.581651e+000
    endloop
  endfacet
  facet normal 3.606457e-001 3.344515e-001 -8.706761e-001
    outer loop
      vertex -2.860047e+000 -3.485327e+001 2.581651e+000
      vertex -4.419516e+000 -2.613995e+001 5.282731e+000
      vertex -2.915059e+000 -2.613995e+001 5.905897e+000
    endloop
  endfacet
  facet normal 5.737044e-001 3.344515e-001 -7.476667e-001
    outer loop
      vertex -4.419516e+000 -2.613995e+001 5.282731e+000
      vertex -2.860047e+000 -3.485327e+001 2.581651e+000
      vertex -3.506001e+000 -3.485327e+001 2.085994e+000
    endloop
  endfacet
  facet normal 5.737044e-001 3.344515e-001 -7.476667e-001
    outer loop
      vertex -3.506001e+000 -3.485327e+001 2.085994e+000
      vertex -5.711422e+000 -2.613995e+001 4.291417e+000
      vertex -4.419516e+000 -2.613995e+001 5.282731e+000
    endloop
  endfacet
  facet normal 7.476667e-001 3.344515e-001 -5.737044e-001
    outer loop
      vertex -5.711422e+000 -2.613995e+001 4.291417e+000
      vertex -3.506001e+000 -3.485327e+001 2.085994e+000
      vertex -4.001657e+000 -3.485327e+001 1.440041e+000
    endloop
  endfacet
  facet normal 7.476665e-001 3.344515e-001 -5.737047e-001
    outer loop
      vertex -4.001657e+000 -3.485327e+001 1.440041e+000
      vertex -6.702736e+000 -2.613995e+001 2.999511e+000
      vertex -5.711422e+000 -2.613995e+001 4.291417e+000
    endloop
  endfacet
  facet normal 8.706759e-001 3.344514e-001 -3.606462e-001
    outer loop
      vertex -6.702736e+000 -2.613995e+001 2.999511e+000
      vertex -4.001657e+000 -3.485327e+001 1.440041e+000
      vertex -4.313241e+000 -3.485327e+001 6.878127e-001
    endloop
  endfacet
  facet normal 8.706760e-001 3.344514e-001 -3.606459e-001
    outer loop
      vertex -4.313241e+000 -3.485327e+001 6.878127e-001
      vertex -7.325903e+000 -2.613995e+001 1.495054e+000
      vertex -6.702736e+000 -2.613995e+001 2.999511e+000
    endloop
  endfacet
  facet normal 9.343505e-001 3.344514e-001 -1.230099e-001
    outer loop
      vertex -7.325903e+000 -2.613995e+001 1.495054e+000
      vertex -4.313241e+000 -3.485327e+001 6.878127e-001
      vertex -4.419517e+000 -3.485327e+001 -1.194275e-001
    endloop
  endfacet
  facet normal 9.343504e-001 3.344514e-001 -1.230101e-001
    outer loop
      vertex -4.419517e+000 -3.485327e+001 -1.194275e-001
      vertex -7.538454e+000 -2.613995e+001 -1.194259e-001
      vertex -7.325903e+000 -2.613995e+001 1.495054e+000
    endloop
  endfacet
  facet normal 9.343507e-001 3.344514e-001 1.230087e-001
    outer loop
      vertex -7.538454e+000 -2.613995e+001 -1.194259e-001
      vertex -4.419517e+000 -3.485327e+001 -1.194275e-001
      vertex -4.313242e+000 -3.485327e+001 -9.266679e-001
    endloop
  endfacet
  facet normal 9.343506e-001 3.344514e-001 1.230090e-001
    outer loop
      vertex -4.313242e+000 -3.485327e+001 -9.266679e-001
      vertex -7.325904e+000 -2.613995e+001 -1.733907e+000
      vertex -7.538454e+000 -2.613995e+001 -1.194259e-001
    endloop
  endfacet
  facet normal 8.706762e-001 3.344514e-001 3.606456e-001
    outer loop
      vertex -7.325904e+000 -2.613995e+001 -1.733907e+000
      vertex -4.313242e+000 -3.485327e+001 -9.266679e-001
      vertex -4.001659e+000 -3.485327e+001 -1.678896e+000
    endloop
  endfacet
  facet normal 8.706762e-001 3.344514e-001 3.606454e-001
    outer loop
      vertex -4.001659e+000 -3.485327e+001 -1.678896e+000
      vertex -6.702739e+000 -2.613995e+001 -3.238363e+000
      vertex -7.325904e+000 -2.613995e+001 -1.733907e+000
    endloop
  endfacet
  facet normal 7.476668e-001 3.344514e-001 5.737042e-001
    outer loop
      vertex -6.702739e+000 -2.613995e+001 -3.238363e+000
      vertex -4.001659e+000 -3.485327e+001 -1.678896e+000
      vertex -3.506002e+000 -3.485327e+001 -2.324849e+000
    endloop
  endfacet
  facet normal 7.476668e-001 3.344514e-001 5.737042e-001
    outer loop
      vertex -3.506002e+000 -3.485327e+001 -2.324849e+000
      vertex -5.711425e+000 -2.613995e+001 -4.530270e+000
      vertex -6.702739e+000 -2.613995e+001 -3.238363e+000
    endloop
  endfacet
  facet normal 5.737051e-001 3.344514e-001 7.476662e-001
    outer loop
      vertex -5.711425e+000 -2.613995e+001 -4.530270e+000
      vertex -3.506002e+000 -3.485327e+001 -2.324849e+000
      vertex -2.860049e+000 -3.485327e+001 -2.820507e+000
    endloop
  endfacet
  facet normal 5.737050e-001 3.344514e-001 7.476663e-001
    outer loop
      vertex -2.860049e+000 -3.485327e+001 -2.820507e+000
      vertex -4.419518e+000 -2.613995e+001 -5.521585e+000
      vertex -5.711425e+000 -2.613995e+001 -4.530270e+000
    endloop
  endfacet
  facet normal 3.606461e-001 3.344513e-001 8.706760e-001
    outer loop
      vertex -4.419518e+000 -2.613995e+001 -5.521585e+000
      vertex -2.860049e+000 -3.485327e+001 -2.820507e+000
      vertex -2.107821e+000 -3.485327e+001 -3.132091e+000
    endloop
  endfacet
  facet normal 3.606461e-001 3.344514e-001 8.706760e-001
    outer loop
      vertex -2.107821e+000 -3.485327e+001 -3.132091e+000
      vertex -2.915062e+000 -2.613995e+001 -6.144752e+000
      vertex -4.419518e+000 -2.613995e+001 -5.521585e+000
    endloop
  endfacet
  facet normal 1.230099e-001 3.344513e-001 9.343505e-001
    outer loop
      vertex -2.915062e+000 -2.613995e+001 -6.144752e+000
      vertex -2.107821e+000 -3.485327e+001 -3.132091e+000
      vertex -1.300581e+000 -3.485327e+001 -3.238366e+000
    endloop
  endfacet
  facet normal 1.230099e-001 3.344514e-001 9.343505e-001
    outer loop
      vertex -1.300581e+000 -3.485327e+001 -3.238366e+000
      vertex -1.300582e+000 -2.613995e+001 -6.357303e+000
      vertex -2.915062e+000 -2.613995e+001 -6.144752e+000
    endloop
  endfacet
  facet normal -1.230092e-001 3.344514e-001 9.343506e-001
    outer loop
      vertex -1.300582e+000 -2.613995e+001 -6.357303e+000
      vertex -1.300581e+000 -3.485327e+001 -3.238366e+000
      vertex -4.933402e-001 -3.485327e+001 -3.132091e+000
    endloop
  endfacet
  facet normal -1.230092e-001 3.344514e-001 9.343506e-001
    outer loop
      vertex -4.933402e-001 -3.485327e+001 -3.132091e+000
      vertex 3.138987e-001 -2.613995e+001 -6.144753e+000
      vertex -1.300582e+000 -2.613995e+001 -6.357303e+000
    endloop
  endfacet
  facet normal -3.606454e-001 3.344513e-001 8.706763e-001
    outer loop
      vertex 3.138987e-001 -2.613995e+001 -6.144753e+000
      vertex -4.933402e-001 -3.485327e+001 -3.132091e+000
      vertex 2.588881e-001 -3.485327e+001 -2.820509e+000
    endloop
  endfacet
  facet normal -3.606452e-001 3.344514e-001 8.706763e-001
    outer loop
      vertex 2.588881e-001 -3.485327e+001 -2.820509e+000
      vertex 1.818355e+000 -2.613995e+001 -5.521588e+000
      vertex 3.138987e-001 -2.613995e+001 -6.144753e+000
    endloop
  endfacet
  facet normal -5.737044e-001 3.344514e-001 7.476668e-001
    outer loop
      vertex 1.818355e+000 -2.613995e+001 -5.521588e+000
      vertex 2.588881e-001 -3.485327e+001 -2.820509e+000
      vertex 9.048414e-001 -3.485327e+001 -2.324852e+000
    endloop
  endfacet
  facet normal -5.737043e-001 3.344514e-001 7.476668e-001
    outer loop
      vertex 9.048414e-001 -3.485327e+001 -2.324852e+000
      vertex 3.110262e+000 -2.613995e+001 -4.530274e+000
      vertex 1.818355e+000 -2.613995e+001 -5.521588e+000
    endloop
  endfacet
  facet normal -7.476661e-001 3.344514e-001 5.737052e-001
    outer loop
      vertex 3.110262e+000 -2.613995e+001 -4.530274e+000
      vertex 9.048414e-001 -3.485327e+001 -2.324852e+000
      vertex 1.400499e+000 -3.485327e+001 -1.678899e+000
    endloop
  endfacet
  facet normal -7.476661e-001 3.344514e-001 5.737051e-001
    outer loop
      vertex 1.400499e+000 -3.485327e+001 -1.678899e+000
      vertex 4.101577e+000 -2.613995e+001 -3.238369e+000
      vertex 3.110262e+000 -2.613995e+001 -4.530274e+000
    endloop
  endfacet
  facet normal -8.706757e-001 3.344514e-001 3.606466e-001
    outer loop
      vertex 4.101577e+000 -2.613995e+001 -3.238369e+000
      vertex 1.400499e+000 -3.485327e+001 -1.678899e+000
      vertex 1.712083e+000 -3.485327e+001 -9.266714e-001
    endloop
  endfacet
  facet normal -8.706757e-001 3.344514e-001 3.606466e-001
    outer loop
      vertex 1.712083e+000 -3.485327e+001 -9.266714e-001
      vertex 4.724744e+000 -2.613995e+001 -1.733914e+000
      vertex 4.101577e+000 -2.613995e+001 -3.238369e+000
    endloop
  endfacet
  facet normal -9.343505e-001 3.344514e-001 1.230098e-001
    outer loop
      vertex 4.724744e+000 -2.613995e+001 -1.733914e+000
      vertex 1.712083e+000 -3.485327e+001 -9.266714e-001
      vertex 1.818358e+000 -3.485327e+001 -1.194287e-001
    endloop
  endfacet
  facet normal -9.343505e-001 3.344514e-001 1.230099e-001
    outer loop
      vertex 1.818358e+000 -3.485327e+001 -1.194287e-001
      vertex 4.937296e+000 -2.613995e+001 -1.194283e-001
      vertex 4.724744e+000 -2.613995e+001 -1.733914e+000
    endloop
  endfacet
  facet normal -9.343504e-001 3.344515e-001 1.230105e-001
    outer loop
      vertex 1.712083e+000 -3.485327e+001 -9.266714e-001
      vertex 1.147243e+000 -3.648692e+001 -7.753226e-001
      vertex 1.233593e+000 -3.648692e+001 -1.194289e-001
    endloop
  endfacet
  facet normal -9.343505e-001 3.344513e-001 1.230099e-001
    outer loop
      vertex 1.233593e+000 -3.648692e+001 -1.194289e-001
      vertex 1.818358e+000 -3.485327e+001 -1.194287e-001
      vertex 1.712083e+000 -3.485327e+001 -9.266714e-001
    endloop
  endfacet
  facet normal -9.343506e-001 3.344513e-001 -1.230098e-001
    outer loop
      vertex 1.818358e+000 -3.485327e+001 -1.194287e-001
      vertex 1.233593e+000 -3.648692e+001 -1.194289e-001
      vertex 1.147243e+000 -3.648692e+001 5.364631e-001
    endloop
  endfacet
  facet normal -9.343506e-001 3.344513e-001 -1.230098e-001
    outer loop
      vertex 1.147243e+000 -3.648692e+001 5.364631e-001
      vertex 1.712083e+000 -3.485327e+001 6.878117e-001
      vertex 1.818358e+000 -3.485327e+001 -1.194287e-001
    endloop
  endfacet
  facet normal -8.706762e-001 3.344514e-001 -3.606457e-001
    outer loop
      vertex 1.400500e+000 -3.485327e+001 1.440040e+000
      vertex 1.712083e+000 -3.485327e+001 6.878117e-001
      vertex 1.147243e+000 -3.648692e+001 5.364631e-001
    endloop
  endfacet
  facet normal -8.706768e-001 3.344509e-001 -3.606447e-001
    outer loop
      vertex 1.147243e+000 -3.648692e+001 5.364631e-001
      vertex 8.940792e-001 -3.648692e+001 1.147658e+000
      vertex 1.400500e+000 -3.485327e+001 1.440040e+000
    endloop
  endfacet
  facet normal -7.476666e-001 3.344510e-001 -5.737048e-001
    outer loop
      vertex 9.048426e-001 -3.485327e+001 2.085993e+000
      vertex 1.400500e+000 -3.485327e+001 1.440040e+000
      vertex 8.940792e-001 -3.648692e+001 1.147658e+000
    endloop
  endfacet
  facet normal -7.476652e-001 3.344518e-001 -5.737062e-001
    outer loop
      vertex 8.940792e-001 -3.648692e+001 1.147658e+000
      vertex 4.913507e-001 -3.648692e+001 1.672501e+000
      vertex 9.048426e-001 -3.485327e+001 2.085993e+000
    endloop
  endfacet
  facet normal -5.737046e-001 3.344517e-001 -7.476664e-001
    outer loop
      vertex 2.588896e-001 -3.485327e+001 2.581650e+000
      vertex 9.048426e-001 -3.485327e+001 2.085993e+000
      vertex 4.913507e-001 -3.648692e+001 1.672501e+000
    endloop
  endfacet
  facet normal -5.737047e-001 3.344517e-001 -7.476664e-001
    outer loop
      vertex 4.913507e-001 -3.648692e+001 1.672501e+000
      vertex -3.349352e-002 -3.648692e+001 2.075228e+000
      vertex 2.588896e-001 -3.485327e+001 2.581650e+000
    endloop
  endfacet
  facet normal -3.606457e-001 3.344516e-001 -8.706760e-001
    outer loop
      vertex -4.933386e-001 -3.485327e+001 2.893234e+000
      vertex 2.588896e-001 -3.485327e+001 2.581650e+000
      vertex -3.349352e-002 -3.648692e+001 2.075228e+000
    endloop
  endfacet
  facet normal -3.606468e-001 3.344512e-001 -8.706757e-001
    outer loop
      vertex -3.349352e-002 -3.648692e+001 2.075228e+000
      vertex -6.446866e-001 -3.648692e+001 2.328394e+000
      vertex -4.933386e-001 -3.485327e+001 2.893234e+000
    endloop
  endfacet
  facet normal -1.230097e-001 3.344513e-001 -9.343506e-001
    outer loop
      vertex -1.300579e+000 -3.485327e+001 2.999509e+000
      vertex -4.933386e-001 -3.485327e+001 2.893234e+000
      vertex -6.446866e-001 -3.648692e+001 2.328394e+000
    endloop
  endfacet
  facet normal -1.230108e-001 3.344509e-001 -9.343506e-001
    outer loop
      vertex -6.446866e-001 -3.648692e+001 2.328394e+000
      vertex -1.300579e+000 -3.648692e+001 2.414744e+000
      vertex -1.300579e+000 -3.485327e+001 2.999509e+000
    endloop
  endfacet
  facet normal 1.230095e-001 3.344510e-001 -9.343507e-001
    outer loop
      vertex -2.107819e+000 -3.485327e+001 2.893234e+000
      vertex -1.300579e+000 -3.485327e+001 2.999509e+000
      vertex -1.300579e+000 -3.648692e+001 2.414744e+000
    endloop
  endfacet
  facet normal 1.230108e-001 3.344515e-001 -9.343503e-001
    outer loop
      vertex -1.300579e+000 -3.648692e+001 2.414744e+000
      vertex -1.956471e+000 -3.648692e+001 2.328394e+000
      vertex -2.107819e+000 -3.485327e+001 2.893234e+000
    endloop
  endfacet
  facet normal 3.606457e-001 3.344514e-001 -8.706761e-001
    outer loop
      vertex -2.860047e+000 -3.485327e+001 2.581651e+000
      vertex -2.107819e+000 -3.485327e+001 2.893234e+000
      vertex -1.956471e+000 -3.648692e+001 2.328394e+000
    endloop
  endfacet
  facet normal 3.606451e-001 3.344512e-001 -8.706765e-001
    outer loop
      vertex -1.956471e+000 -3.648692e+001 2.328394e+000
      vertex -2.567665e+000 -3.648692e+001 2.075229e+000
      vertex -2.860047e+000 -3.485327e+001 2.581651e+000
    endloop
  endfacet
  facet normal 5.737045e-001 3.344512e-001 -7.476667e-001
    outer loop
      vertex -3.506001e+000 -3.485327e+001 2.085994e+000
      vertex -2.860047e+000 -3.485327e+001 2.581651e+000
      vertex -2.567665e+000 -3.648692e+001 2.075229e+000
    endloop
  endfacet
  facet normal 5.737050e-001 3.344515e-001 -7.476662e-001
    outer loop
      vertex -2.567665e+000 -3.648692e+001 2.075229e+000
      vertex -3.092509e+000 -3.648692e+001 1.672502e+000
      vertex -3.506001e+000 -3.485327e+001 2.085994e+000
    endloop
  endfacet
  facet normal 7.476666e-001 3.344515e-001 -5.737045e-001
    outer loop
      vertex -4.001657e+000 -3.485327e+001 1.440041e+000
      vertex -3.506001e+000 -3.485327e+001 2.085994e+000
      vertex -3.092509e+000 -3.648692e+001 1.672502e+000
    endloop
  endfacet
  facet normal 7.476657e-001 3.344507e-001 -5.737062e-001
    outer loop
      vertex -3.092509e+000 -3.648692e+001 1.672502e+000
      vertex -3.495237e+000 -3.648692e+001 1.147659e+000
      vertex -4.001657e+000 -3.485327e+001 1.440041e+000
    endloop
  endfacet
  facet normal 8.706761e-001 3.344508e-001 -3.606464e-001
    outer loop
      vertex -4.313241e+000 -3.485327e+001 6.878127e-001
      vertex -4.001657e+000 -3.485327e+001 1.440041e+000
      vertex -3.495237e+000 -3.648692e+001 1.147659e+000
    endloop
  endfacet
  facet normal 8.706763e-001 3.344511e-001 -3.606457e-001
    outer loop
      vertex -3.495237e+000 -3.648692e+001 1.147659e+000
      vertex -3.748402e+000 -3.648692e+001 5.364643e-001
      vertex -4.313241e+000 -3.485327e+001 6.878127e-001
    endloop
  endfacet
  facet normal 9.343506e-001 3.344511e-001 -1.230100e-001
    outer loop
      vertex -4.419517e+000 -3.485327e+001 -1.194275e-001
      vertex -4.313241e+000 -3.485327e+001 6.878127e-001
      vertex -3.748402e+000 -3.648692e+001 5.364643e-001
    endloop
  endfacet
  facet normal 9.343506e-001 3.344516e-001 -1.230087e-001
    outer loop
      vertex -3.748402e+000 -3.648692e+001 5.364643e-001
      vertex -3.834751e+000 -3.648692e+001 -1.194279e-001
      vertex -4.419517e+000 -3.485327e+001 -1.194275e-001
    endloop
  endfacet
  facet normal 9.343506e-001 3.344516e-001 1.230089e-001
    outer loop
      vertex -4.313242e+000 -3.485327e+001 -9.266679e-001
      vertex -4.419517e+000 -3.485327e+001 -1.194275e-001
      vertex -3.834751e+000 -3.648692e+001 -1.194279e-001
    endloop
  endfacet
  facet normal 9.343510e-001 3.344510e-001 1.230075e-001
    outer loop
      vertex -3.834751e+000 -3.648692e+001 -1.194279e-001
      vertex -3.748403e+000 -3.648692e+001 -7.753197e-001
      vertex -4.313242e+000 -3.485327e+001 -9.266679e-001
    endloop
  endfacet
  facet normal 8.706762e-001 3.344511e-001 3.606458e-001
    outer loop
      vertex -4.001659e+000 -3.485327e+001 -1.678896e+000
      vertex -4.313242e+000 -3.485327e+001 -9.266679e-001
      vertex -3.748403e+000 -3.648692e+001 -7.753197e-001
    endloop
  endfacet
  facet normal 8.706757e-001 3.344515e-001 3.606466e-001
    outer loop
      vertex -3.748403e+000 -3.648692e+001 -7.753197e-001
      vertex -3.495237e+000 -3.648692e+001 -1.386514e+000
      vertex -4.001659e+000 -3.485327e+001 -1.678896e+000
    endloop
  endfacet
  facet normal 7.476668e-001 3.344514e-001 5.737042e-001
    outer loop
      vertex -3.506002e+000 -3.485327e+001 -2.324849e+000
      vertex -4.001659e+000 -3.485327e+001 -1.678896e+000
      vertex -3.495237e+000 -3.648692e+001 -1.386514e+000
    endloop
  endfacet
  facet normal 7.476665e-001 3.344516e-001 5.737045e-001
    outer loop
      vertex -3.495237e+000 -3.648692e+001 -1.386514e+000
      vertex -3.092510e+000 -3.648692e+001 -1.911358e+000
      vertex -3.506002e+000 -3.485327e+001 -2.324849e+000
    endloop
  endfacet
  facet normal 5.737050e-001 3.344516e-001 7.476662e-001
    outer loop
      vertex -2.860049e+000 -3.485327e+001 -2.820507e+000
      vertex -3.506002e+000 -3.485327e+001 -2.324849e+000
      vertex -3.092510e+000 -3.648692e+001 -1.911358e+000
    endloop
  endfacet
  facet normal 5.737066e-001 3.344508e-001 7.476653e-001
    outer loop
      vertex -3.092510e+000 -3.648692e+001 -1.911358e+000
      vertex -2.567666e+000 -3.648692e+001 -2.314087e+000
      vertex -2.860049e+000 -3.485327e+001 -2.820507e+000
    endloop
  endfacet
  facet normal 3.606461e-001 3.344509e-001 8.706762e-001
    outer loop
      vertex -2.107821e+000 -3.485327e+001 -3.132091e+000
      vertex -2.860049e+000 -3.485327e+001 -2.820507e+000
      vertex -2.567666e+000 -3.648692e+001 -2.314087e+000
    endloop
  endfacet
  facet normal 3.606459e-001 3.344510e-001 8.706762e-001
    outer loop
      vertex -2.567666e+000 -3.648692e+001 -2.314087e+000
      vertex -1.956472e+000 -3.648692e+001 -2.567251e+000
      vertex -2.107821e+000 -3.485327e+001 -3.132091e+000
    endloop
  endfacet
  facet normal 1.230100e-001 3.344510e-001 9.343506e-001
    outer loop
      vertex -1.300581e+000 -3.485327e+001 -3.238366e+000
      vertex -2.107821e+000 -3.485327e+001 -3.132091e+000
      vertex -1.956472e+000 -3.648692e+001 -2.567251e+000
    endloop
  endfacet
  facet normal 1.230087e-001 3.344515e-001 9.343506e-001
    outer loop
      vertex -1.956472e+000 -3.648692e+001 -2.567251e+000
      vertex -1.300580e+000 -3.648692e+001 -2.653601e+000
      vertex -1.300581e+000 -3.485327e+001 -3.238366e+000
    endloop
  endfacet
  facet normal -1.230092e-001 3.344514e-001 9.343506e-001
    outer loop
      vertex -4.933402e-001 -3.485327e+001 -3.132091e+000
      vertex -1.300581e+000 -3.485327e+001 -3.238366e+000
      vertex -1.300580e+000 -3.648692e+001 -2.653601e+000
    endloop
  endfacet
  facet normal -1.230075e-001 3.344507e-001 9.343510e-001
    outer loop
      vertex -1.300580e+000 -3.648692e+001 -2.653601e+000
      vertex -6.446884e-001 -3.648692e+001 -2.567252e+000
      vertex -4.933402e-001 -3.485327e+001 -3.132091e+000
    endloop
  endfacet
  facet normal -3.606453e-001 3.344509e-001 8.706765e-001
    outer loop
      vertex 2.588881e-001 -3.485327e+001 -2.820509e+000
      vertex -4.933402e-001 -3.485327e+001 -3.132091e+000
      vertex -6.446884e-001 -3.648692e+001 -2.567252e+000
    endloop
  endfacet
  facet normal -3.606457e-001 3.344510e-001 8.706763e-001
    outer loop
      vertex -6.446884e-001 -3.648692e+001 -2.567252e+000
      vertex -3.349411e-002 -3.648692e+001 -2.314088e+000
      vertex 2.588881e-001 -3.485327e+001 -2.820509e+000
    endloop
  endfacet
  facet normal -5.737044e-001 3.344510e-001 7.476668e-001
    outer loop
      vertex 9.048414e-001 -3.485327e+001 -2.324852e+000
      vertex 2.588881e-001 -3.485327e+001 -2.820509e+000
      vertex -3.349411e-002 -3.648692e+001 -2.314088e+000
    endloop
  endfacet
  facet normal -5.737048e-001 3.344512e-001 7.476665e-001
    outer loop
      vertex -3.349411e-002 -3.648692e+001 -2.314088e+000
      vertex 4.913504e-001 -3.648692e+001 -1.911360e+000
      vertex 9.048414e-001 -3.485327e+001 -2.324852e+000
    endloop
  endfacet
  facet normal -7.476662e-001 3.344512e-001 5.737053e-001
    outer loop
      vertex 1.400499e+000 -3.485327e+001 -1.678899e+000
      vertex 9.048414e-001 -3.485327e+001 -2.324852e+000
      vertex 4.913504e-001 -3.648692e+001 -1.911360e+000
    endloop
  endfacet
  facet normal -7.476665e-001 3.344515e-001 5.737047e-001
    outer loop
      vertex 4.913504e-001 -3.648692e+001 -1.911360e+000
      vertex 8.940773e-001 -3.648692e+001 -1.386516e+000
      vertex 1.400499e+000 -3.485327e+001 -1.678899e+000
    endloop
  endfacet
  facet normal -8.706757e-001 3.344514e-001 3.606466e-001
    outer loop
      vertex 1.712083e+000 -3.485327e+001 -9.266714e-001
      vertex 1.400499e+000 -3.485327e+001 -1.678899e+000
      vertex 8.940773e-001 -3.648692e+001 -1.386516e+000
    endloop
  endfacet
  facet normal -8.706757e-001 3.344515e-001 3.606465e-001
    outer loop
      vertex 8.940773e-001 -3.648692e+001 -1.386516e+000
      vertex 1.147243e+000 -3.648692e+001 -7.753226e-001
      vertex 1.712083e+000 -3.485327e+001 -9.266714e-001
    endloop
  endfacet
endsolid Cone001
